<svg xmlns="http://www.w3.org/2000/svg" viewBox="0 0 900 680"><defs><linearGradient id="r" x1="0" y1="0" x2="0" y2="1"><stop stop-color="#2d2147"/><stop offset="1" stop-color="#15151b"/></linearGradient></defs><rect width="900" height="680" fill="url(#r)"/><g stroke="#74aef8" stroke-width="5" opacity=".55"><path d="M0 130 900 410M0 240l900 280M90 0l500 680M360 0l400 680"/></g><path d="M0 550c183-58 298-35 440 40 151-93 294-99 460-37v127H0Z" fill="#0e1015"/><path d="M210 426h435v127H210Z" fill="#202a34"/><path d="M250 390h340l77 57H193Z" fill="#f15b47"/><g fill="#f5aa3c"><rect x="260" y="462" width="88" height="51"/><rect x="380" y="462" width="88" height="51"/><circle cx="560" cy="488" r="31"/></g><g stroke="#fff8ed" stroke-width="8" stroke-linecap="round"><path d="m685 150 54-75m-13 111 82-34m-82 81 88 12"/></g></svg>
