<svg xmlns="http://www.w3.org/2000/svg" viewBox="0 0 900 680"><rect width="900" height="680" fill="#1a2028"/><circle cx="700" cy="130" r="85" fill="#f15b47" opacity=".8"/><path d="M0 520 170 378l120 85 150-170 125 134 118-89 217 195v147H0Z" fill="#111116"/><path d="M321 520c-11-115 32-228 127-261 95-33 183 34 197 135 8 57-19 101-58 126Z" fill="#59d4c5"/><path d="m367 295 19-112 86 91m104 19 44-99 63 126" fill="#59d4c5"/><circle cx="445" cy="368" r="17" fill="#111116"/><circle cx="556" cy="368" r="17" fill="#111116"/><path d="M461 438c32 20 63 20 93 0" fill="none" stroke="#111116" stroke-width="12" stroke-linecap="round"/><g fill="#f5aa3c"><rect x="120" y="264" width="14" height="196"/><rect x="760" y="230" width="14" height="224"/><circle cx="127" cy="253" r="37"/><circle cx="767" cy="219" r="37"/></g></svg>
